# xmcd
#
# Track frame offsets:
#  210
#  29346
#  47126
#  74221
#  104960
#  128611
#  148066
#  164514
#  193975
#  219461
#  239507
#  263057
#
# Disc length: 3833 seconds
#
# Revision: 1
# Processed by: cddbd v1.5.1PL0 Copyright (c) Steve Scherf et al.
# Submitted via: Collectorz.com_Music_Collector 6.9
#
DISCID=c70ef70c
DTITLE=Eddie Taylor Jr. - Worried About My Baby
DYEAR=2003
DGENRE=Blues -  Blues Chicago -  Blues Electric -  Blues Guitar
TTITLE0=Blues In Your Life
TTITLE1=Worried About My Baby
TTITLE2=Cut You Loose
TTITLE3=Easy Baby
TTITLE4=Can't Take It No More
TTITLE5=Stop Breakin' Down
TTITLE6=I Feel So Bad
TTITLE7=Clouds In My Heart
TTITLE8=Groovin' With Eddie
TTITLE9=Sock It To Me
TTITLE10=Why Can't You Be True
TTITLE11=Red Hot Mama
EXTD=
EXTT0=
EXTT1=
EXTT2=
EXTT3=
EXTT4=
EXTT5=
EXTT6=
EXTT7=
EXTT8=
EXTT9=
EXTT10=
EXTT11=
PLAYORDER=
